<?xml version="1.0" standalone="no"?>
<!DOCTYPE svg PUBLIC "-//W3C//DTD SVG 20010904//EN"
 "http://www.w3.org/TR/2001/REC-SVG-20010904/DTD/svg10.dtd">
<svg version="1.0" xmlns="http://www.w3.org/2000/svg"
 width="317.000000pt" height="317.000000pt" viewBox="0 0 317.000000 317.000000"
 preserveAspectRatio="xMidYMid meet">
<g transform="translate(0.000000,317.000000) scale(0.100000,-0.100000)"
fill="#000000" stroke="none">
<path d="M260 3143 c-104 -36 -172 -100 -222 -208 l-23 -50 -3 -1274 c-3
-1413 -6 -1332 63 -1437 36 -56 98 -102 184 -136 l56 -23 1230 -3 c884 -2
1247 0 1289 8 137 27 241 102 292 213 l29 62 3 1260 c2 940 0 1274 -9 1315
-25 118 -92 206 -197 257 l-57 28 -1295 2 c-1157 2 -1300 0 -1340 -14z m2629
-82 c76 -29 117 -66 153 -140 l33 -66 -3 -1270 c-4 -1237 -4 -1271 -23 -1315
-24 -54 -71 -105 -121 -131 -90 -46 -90 -46 -1373 -45 l-1210 1 -56 23 c-88
35 -133 73 -165 139 l-29 58 0 1270 0 1270 33 67 c36 74 80 114 157 140 46 16
141 17 1302 18 1197 0 1255 -1 1302 -19z"/>
<path d="M1063 2189 c-44 -13 -80 -60 -89 -114 -11 -75 0 -306 16 -339 8 -17
31 -39 50 -50 31 -19 52 -21 195 -21 176 0 207 8 242 62 26 40 27 362 1 409
-28 52 -76 64 -241 63 -78 0 -156 -5 -174 -10z"/>
<path d="M1765 2185 c-74 -27 -88 -72 -83 -281 3 -136 5 -156 24 -181 38 -52
64 -58 239 -58 143 0 164 2 195 21 59 34 65 58 65 251 0 192 -5 210 -76 245
-45 23 -302 25 -364 3z"/>
<path d="M1049 1474 c-65 -27 -74 -56 -74 -249 0 -258 10 -269 260 -269 167 0
209 10 242 60 16 25 18 50 18 204 0 262 -7 269 -260 269 -110 0 -160 -4 -186
-15z"/>
<path d="M1775 1483 c-80 -22 -98 -75 -93 -274 4 -177 12 -204 73 -234 35 -17
60 -20 190 -19 248 0 260 12 260 264 0 260 -3 264 -245 267 -91 1 -174 -1
-185 -4z"/>
</g>
</svg>
